<svg width="1259" height="474" viewBox="0 0 1259 474" fill="none" xmlns="http://www.w3.org/2000/svg">
<path d="M232.8 4.79999H312.6V292.5H391.7V363.2H312.6V464H230.7V363.2H0.400001V300.9L232.8 4.79999ZM234.9 127.3L98.4 300.9H234.9V127.3ZM627.209 473.8C589.875 473.8 556.975 465.167 528.509 447.9C500.275 430.633 478.109 404.5 462.009 369.5C446.142 334.5 438.209 290.4 438.209 237.2C438.209 183.767 446.142 139.55 462.009 104.55C478.109 69.55 500.275 43.5333 528.509 26.5C556.975 9.23331 589.875 0.599958 627.209 0.599958C664.075 0.599958 696.625 9.23331 724.859 26.5C753.325 43.5333 775.492 69.55 791.359 104.55C807.459 139.55 815.509 183.767 815.509 237.2C815.509 290.4 807.459 334.5 791.359 369.5C775.492 404.5 753.325 430.633 724.859 447.9C696.625 465.167 664.075 473.8 627.209 473.8ZM627.209 398.2C659.875 398.2 685.192 384.433 703.159 356.9C721.125 329.133 730.109 289.233 730.109 237.2C730.109 185.167 721.125 145.267 703.159 117.5C685.192 89.5 659.875 75.5 627.209 75.5C594.309 75.5 568.759 89.5 550.559 117.5C532.592 145.267 523.609 185.167 523.609 237.2C523.609 289.233 532.592 329.133 550.559 356.9C568.759 384.433 594.309 398.2 627.209 398.2ZM1100.08 4.79999H1179.88V292.5H1258.98V363.2H1179.88V464H1097.98V363.2H867.677V300.9L1100.08 4.79999ZM1102.18 127.3L965.677 300.9H1102.18V127.3Z" fill="black" fill-opacity="0.5"/>
</svg>
